<mxfile host="app.diagrams.net" modified="2025-01-15T00:00:00.000Z" agent="5.0" etag="xxx" version="24.7.17" type="device">
  <diagram name="SC3_システム管理" id="SC3_system_management">
    <mxGraphModel dx="1422" dy="794" grid="1" gridSize="10" guides="1" tooltips="1" connect="1" arrows="1" fold="1" page="1" pageScale="1" pageWidth="1200" pageHeight="800" math="0" shadow="0">
      <root>
        <mxCell id="0" />
        <mxCell id="1" parent="0" />
        
        <!-- ヘッダー -->
        <mxCell id="header" value="システム管理" style="rounded=1;whiteSpace=wrap;html=1;fillColor=#3b82f6;fontColor=#ffffff;fontSize=18;fontStyle=1;strokeColor=#1e40af;" vertex="1" parent="1">
          <mxGeometry x="0" y="0" width="1200" height="64" as="geometry" />
        </mxCell>
        
        <!-- サイドバー -->
        <mxCell id="sidebar" value="メニュー・組織階層" style="rounded=1;whiteSpace=wrap;html=1;fillColor=#f8fafc;strokeColor=#e2e8f0;fontSize=14;fontStyle=1;align=left;verticalAlign=top;" vertex="1" parent="1">
          <mxGeometry x="0" y="64" width="240" height="736" as="geometry" />
        </mxCell>
        
        <!-- メニュー項目 -->
        <mxCell id="menu_dashboard" value="📊 ダッシュボード" style="rounded=1;whiteSpace=wrap;html=1;fillColor=#ffffff;fontColor=#374151;fontSize=14;strokeColor=#d1d5db;" vertex="1" parent="1">
          <mxGeometry x="16" y="96" width="208" height="40" as="geometry" />
        </mxCell>
        
        <mxCell id="menu_goals" value="🎯 目標設定" style="rounded=1;whiteSpace=wrap;html=1;fillColor=#ffffff;fontColor=#374151;fontSize=14;strokeColor=#d1d5db;" vertex="1" parent="1">
          <mxGeometry x="16" y="152" width="208" height="40" as="geometry" />
        </mxCell>
        
        <mxCell id="menu_progress" value="📈 進捗管理" style="rounded=1;whiteSpace=wrap;html=1;fillColor=#ffffff;fontColor=#374151;fontSize=14;strokeColor=#d1d5db;" vertex="1" parent="1">
          <mxGeometry x="16" y="208" width="208" height="40" as="geometry" />
        </mxCell>
        
        <mxCell id="menu_system" value="⚙️ システム管理" style="rounded=1;whiteSpace=wrap;html=1;fillColor=#3b82f6;fontColor=#ffffff;fontSize=14;fontStyle=1;strokeColor=#1e40af;" vertex="1" parent="1">
          <mxGeometry x="16" y="264" width="208" height="40" as="geometry" />
        </mxCell>
        
        <!-- 組織階層 -->
        <mxCell id="org_title" value="組織階層:" style="text;html=1;strokeColor=none;fillColor=none;align=left;verticalAlign=middle;whiteSpace=wrap;rounded=0;fontSize=12;fontStyle=1;" vertex="1" parent="1">
          <mxGeometry x="16" y="320" width="80" height="20" as="geometry" />
        </mxCell>
        
        <mxCell id="org_company" value="🏢 三河自動車部品" style="text;html=1;strokeColor=none;fillColor=none;align=left;verticalAlign=middle;whiteSpace=wrap;rounded=0;fontSize=12;" vertex="1" parent="1">
          <mxGeometry x="16" y="344" width="120" height="20" as="geometry" />
        </mxCell>
        
        <mxCell id="org_sales" value="  📋 営業部" style="text;html=1;strokeColor=none;fillColor=none;align=left;verticalAlign=middle;whiteSpace=wrap;rounded=0;fontSize=12;" vertex="1" parent="1">
          <mxGeometry x="16" y="368" width="80" height="20" as="geometry" />
        </mxCell>
        
        <mxCell id="org_sales1" value="    👥 営業1課" style="text;html=1;strokeColor=none;fillColor=none;align=left;verticalAlign=middle;whiteSpace=wrap;rounded=0;fontSize=12;" vertex="1" parent="1">
          <mxGeometry x="16" y="392" width="80" height="20" as="geometry" />
        </mxCell>
        
        <mxCell id="org_sales2" value="    👥 営業2課" style="text;html=1;strokeColor=none;fillColor=none;align=left;verticalAlign=middle;whiteSpace=wrap;rounded=0;fontSize=12;" vertex="1" parent="1">
          <mxGeometry x="16" y="416" width="80" height="20" as="geometry" />
        </mxCell>
        
        <mxCell id="org_manufacturing" value="  🏭 製造部" style="text;html=1;strokeColor=none;fillColor=none;align=left;verticalAlign=middle;whiteSpace=wrap;rounded=0;fontSize=12;" vertex="1" parent="1">
          <mxGeometry x="16" y="440" width="80" height="20" as="geometry" />
        </mxCell>
        
        <mxCell id="org_admin" value="  📊 管理部" style="text;html=1;strokeColor=none;fillColor=none;align=left;verticalAlign=middle;whiteSpace=wrap;rounded=0;fontSize=12;" vertex="1" parent="1">
          <mxGeometry x="16" y="464" width="80" height="20" as="geometry" />
        </mxCell>
        
        <!-- メインエリア -->
        <mxCell id="main_area" value="システム管理エリア" style="rounded=1;whiteSpace=wrap;html=1;fillColor=#ffffff;strokeColor=#e2e8f0;fontSize=14;fontStyle=1;align=left;verticalAlign=top;" vertex="1" parent="1">
          <mxGeometry x="240" y="64" width="960" height="736" as="geometry" />
        </mxCell>
        
        <!-- ユーザー管理 -->
        <mxCell id="user_management" value="ユーザー管理" style="rounded=1;whiteSpace=wrap;html=1;fillColor=#f0f9ff;strokeColor=#0ea5e9;fontSize=12;fontStyle=1;align=left;verticalAlign=top;" vertex="1" parent="1">
          <mxGeometry x="256" y="80" width="464" height="200" as="geometry" />
        </mxCell>
        
        <!-- ユーザー管理要素 -->
        <mxCell id="user_list" value="👥 ユーザー一覧&#xa;田中健一 (営業部長)&#xa;山田太郎 (社長)&#xa;佐藤美咲 (現場作業員)&#xa;鈴木一郎 (IT担当者)" style="rounded=1;whiteSpace=wrap;html=1;fillColor=#ffffff;strokeColor=#d1d5db;fontSize=11;align=left;verticalAlign=top;" vertex="1" parent="1">
          <mxGeometry x="272" y="96" width="200" height="120" as="geometry" />
        </mxCell>
        
        <mxCell id="user_add_btn" value="➕ 新規追加" style="rounded=1;whiteSpace=wrap;html=1;fillColor=#10b981;fontColor=#ffffff;fontSize=12;fontStyle=1;strokeColor=#059669;" vertex="1" parent="1">
          <mxGeometry x="272" y="224" width="80" height="24" as="geometry" />
        </mxCell>
        
        <mxCell id="user_edit_btn" value="✏️ 編集" style="rounded=1;whiteSpace=wrap;html=1;fillColor=#3b82f6;fontColor=#ffffff;fontSize=12;fontStyle=1;strokeColor=#1e40af;" vertex="1" parent="1">
          <mxGeometry x="360" y="224" width="60" height="24" as="geometry" />
        </mxCell>
        
        <mxCell id="user_delete_btn" value="🗑️ 削除" style="rounded=1;whiteSpace=wrap;html=1;fillColor=#ef4444;fontColor=#ffffff;fontSize=12;fontStyle=1;strokeColor=#dc2626;" vertex="1" parent="1">
          <mxGeometry x="428" y="224" width="60" height="24" as="geometry" />
        </mxCell>
        
        <!-- 組織体制管理 -->
        <mxCell id="organization_management" value="組織体制管理" style="rounded=1;whiteSpace=wrap;html=1;fillColor=#f0fdf4;strokeColor=#10b981;fontSize=12;fontStyle=1;align=left;verticalAlign=top;" vertex="1" parent="1">
          <mxGeometry x="736" y="80" width="448" height="200" as="geometry" />
        </mxCell>
        
        <!-- 組織体制管理要素 -->
        <mxCell id="org_structure" value="🏢 組織階層表示&#xa;三河自動車部品&#xa;├ 営業部&#xa;│  ├ 営業1課&#xa;│  └ 営業2課&#xa;├ 製造部&#xa;└ 管理部" style="rounded=1;whiteSpace=wrap;html=1;fillColor=#ffffff;strokeColor=#d1d5db;fontSize=11;align=left;verticalAlign=top;" vertex="1" parent="1">
          <mxGeometry x="752" y="96" width="200" height="120" as="geometry" />
        </mxCell>
        
        <mxCell id="org_edit_btn" value="✏️ 編集" style="rounded=1;whiteSpace=wrap;html=1;fillColor=#10b981;fontColor=#ffffff;fontSize=12;fontStyle=1;strokeColor=#059669;" vertex="1" parent="1">
          <mxGeometry x="752" y="224" width="60" height="24" as="geometry" />
        </mxCell>
        
        <mxCell id="org_add_btn" value="➕ 追加" style="rounded=1;whiteSpace=wrap;html=1;fillColor=#3b82f6;fontColor=#ffffff;fontSize=12;fontStyle=1;strokeColor=#1e40af;" vertex="1" parent="1">
          <mxGeometry x="820" y="224" width="60" height="24" as="geometry" />
        </mxCell>
        
        <!-- ロール・権限管理 -->
        <mxCell id="role_management" value="ロール・権限管理" style="rounded=1;whiteSpace=wrap;html=1;fillColor=#fef3c7;strokeColor=#f59e0b;fontSize=12;fontStyle=1;align=left;verticalAlign=top;" vertex="1" parent="1">
          <mxGeometry x="256" y="296" width="464" height="200" as="geometry" />
        </mxCell>
        
        <!-- ロール・権限管理要素 -->
        <mxCell id="role_list" value="👤 ロール一覧&#xa;管理者: 全権限&#xa;営業部長: 営業データ管理&#xa;現場作業員: 進捗入力&#xa;IT担当者: システム設定" style="rounded=1;whiteSpace=wrap;html=1;fillColor=#ffffff;strokeColor=#d1d5db;fontSize=11;align=left;verticalAlign=top;" vertex="1" parent="1">
          <mxGeometry x="272" y="312" width="200" height="120" as="geometry" />
        </mxCell>
        
        <mxCell id="role_permission_btn" value="🔐 権限設定" style="rounded=1;whiteSpace=wrap;html=1;fillColor=#f59e0b;fontColor=#ffffff;fontSize=12;fontStyle=1;strokeColor=#d97706;" vertex="1" parent="1">
          <mxGeometry x="272" y="440" width="80" height="24" as="geometry" />
        </mxCell>
        
        <!-- データソース管理 -->
        <mxCell id="data_source_management" value="データソース管理" style="rounded=1;whiteSpace=wrap;html=1;fillColor=#fdf2f8;strokeColor=#ec4899;fontSize=12;fontStyle=1;align=left;verticalAlign=top;" vertex="1" parent="1">
          <mxGeometry x="736" y="296" width="448" height="200" as="geometry" />
        </mxCell>
        
        <!-- データソース管理要素 -->
        <mxCell id="data_source_list" value="📊 データソース一覧&#xa;営業管理システム&#xa;生産管理システム&#xa;会計システム&#xa;人事システム" style="rounded=1;whiteSpace=wrap;html=1;fillColor=#ffffff;strokeColor=#d1d5db;fontSize=11;align=left;verticalAlign=top;" vertex="1" parent="1">
          <mxGeometry x="752" y="312" width="200" height="120" as="geometry" />
        </mxCell>
        
        <mxCell id="data_source_config_btn" value="⚙️ 接続設定" style="rounded=1;whiteSpace=wrap;html=1;fillColor=#ec4899;fontColor=#ffffff;fontSize=12;fontStyle=1;strokeColor=#db2777;" vertex="1" parent="1">
          <mxGeometry x="752" y="440" width="80" height="24" as="geometry" />
        </mxCell>
        
        <!-- システム設定 -->
        <mxCell id="system_settings" value="システム設定" style="rounded=1;whiteSpace=wrap;html=1;fillColor=#f3e8ff;strokeColor=#8b5cf6;fontSize=12;fontStyle=1;align=left;verticalAlign=top;" vertex="1" parent="1">
          <mxGeometry x="256" y="512" width="464" height="200" as="geometry" />
        </mxCell>
        
        <!-- システム設定要素 -->
        <mxCell id="system_config_list" value="⚙️ 設定項目一覧&#xa;通知設定&#xa;テーマ設定&#xa;言語設定&#xa;セキュリティ設定&#xa;バックアップ設定" style="rounded=1;whiteSpace=wrap;html=1;fillColor=#ffffff;strokeColor=#d1d5db;fontSize=11;align=left;verticalAlign=top;" vertex="1" parent="1">
          <mxGeometry x="272" y="528" width="200" height="120" as="geometry" />
        </mxCell>
        
        <mxCell id="system_save_btn" value="💾 保存" style="rounded=1;whiteSpace=wrap;html=1;fillColor=#8b5cf6;fontColor=#ffffff;fontSize=12;fontStyle=1;strokeColor=#7c3aed;" vertex="1" parent="1">
          <mxGeometry x="272" y="656" width="60" height="24" as="geometry" />
        </mxCell>
        
        <mxCell id="system_reset_btn" value="🔄 リセット" style="rounded=1;whiteSpace=wrap;html=1;fillColor=#6b7280;fontColor=#ffffff;fontSize=12;fontStyle=1;strokeColor=#4b5563;" vertex="1" parent="1">
          <mxGeometry x="340" y="656" width="80" height="24" as="geometry" />
        </mxCell>
        
        <!-- 戻るボタン -->
        <mxCell id="back_btn" value="⬅️ 戻る" style="rounded=1;whiteSpace=wrap;html=1;fillColor=#6b7280;fontColor=#ffffff;fontSize=12;fontStyle=1;strokeColor=#4b5563;" vertex="1" parent="1">
          <mxGeometry x="256" y="728" width="120" height="40" as="geometry" />
        </mxCell>
        
      </root>
    </mxGraphModel>
  </diagram>
</mxfile>
